HIERARCHY
ROOT Hips
{
  OFFSET 0 0 0
  CHANNELS 6 Xposition Yposition Zposition Zrotation Yrotation Xrotation
  JOINT LeftThigh
  {
    OFFSET 8.409438 0 -5.917753
    CHANNELS 3 Zrotation Yrotation Xrotation
    JOINT LeftLeg
    {
      OFFSET 0 0 -42.358652
      CHANNELS 3 Zrotation Yrotation Xrotation
      JOINT LeftFoot
      {
        OFFSET 0 0 -39.357303
        CHANNELS 3 Zrotation Yrotation Xrotation
      }
    }
  }
  JOINT RightThigh
  {
    OFFSET -8.409438 0 -5.917753
    CHANNELS 3 Zrotation Yrotation Xrotation
    JOINT RightLeg
    {
      OFFSET 0 0 -42.358652
      CHANNELS 3 Zrotation Yrotation Xrotation
      JOINT RightFoot
      {
        OFFSET 0 0 -39.357303
        CHANNELS 3 Zrotation Yrotation Xrotation
      }
    }
  }
  JOINT SpineLow
  {
    OFFSET 0 0 4.719101
    CHANNELS 3 Zrotation Yrotation Xrotation
    JOINT SpineMid
    {
      OFFSET 0 0 12.899191
      CHANNELS 3 Zrotation Yrotation Xrotation
      JOINT Chest
      {
        OFFSET 0 0 12.899191
        CHANNELS 3 Zrotation Yrotation Xrotation
        JOINT LeftShoulder
        {
          OFFSET 7.550562 1.41573 9.438202
          CHANNELS 3 Zrotation Yrotation Xrotation
          JOINT LeftArm
          {
            OFFSET 9.155056 0 4.247191
            CHANNELS 3 Zrotation Yrotation Xrotation
            JOINT LeftForearm
            {
              OFFSET 0 0 25.771955
              CHANNELS 3 Zrotation Yrotation Xrotation
              JOINT LeftHand
              {
                OFFSET 0 0 25.197169
                CHANNELS 3 Zrotation Yrotation Xrotation
              }
            }
          }
        }
        JOINT RightShoulder
        {
          OFFSET -7.550562 1.41573 9.438202
          CHANNELS 3 Zrotation Yrotation Xrotation
          JOINT RightArm
          {
            OFFSET -9.155056 0 4.247191
            CHANNELS 3 Zrotation Yrotation Xrotation
            JOINT RightForearm
            {
              OFFSET 0 0 -25.771955
              CHANNELS 3 Zrotation Yrotation Xrotation
              JOINT RightHand
              {
                OFFSET 0 0 -25.197169
                CHANNELS 3 Zrotation Yrotation Xrotation
              }
            }
          }
        }
        JOINT Neck
        {
          OFFSET 0 0 15.101124
          CHANNELS 3 Zrotation Yrotation Xrotation
          JOINT Head
          {
            OFFSET 0 0 11.325843
            CHANNELS 3 Zrotation Yrotation Xrotation
            End Site
            {
              OFFSET 0 0 14.157303
            }
          }
        }
      }
    }
  }
}
MOTION
Frames: 11
Frame Time: 0.0
0.0  101.685394  0.0  -1.864401  -13.267924  -100.281285  19.359938  -21.487065  -27.508331  6.846552  7.719905  44.824513  -2.918792  -1.813302  1.917235  0.426254  7.8596  23.016904  -1.78305  -1.113973  7.534913  -5.705323  2.204868  -6.675131  -0.409154  -0.179934  2.914116  -1.13819  -0.441746  7.968336  -1.138191  -0.441746  7.968336  -7.948906  20.174434  4.898402  -179.32961  59.180754  -139.246506  -37.353021  -30.373485  107.126472  78.094171  -12.347383  -16.278308  6.681965  -1.770269  18.189117  103.316605  27.694446  34.885602  -50.030778  32.096564  -88.542581  84.665164  16.71316  -15.786034  7.996779  -1.151284  -2.95625  5.99198  -0.902355  -2.202493  
0.0  101.685394  0.0  -1.760263  -13.170108  -100.306297  18.809128  -21.448333  -27.262041  7.130774  7.551755  44.546546  -2.850833  -1.86613  1.916808  0.252584  7.985191  22.887149  -1.801298  -1.08349  7.6533  -5.62033  2.249519  -6.671335  -0.421941  -0.174346  2.90945  -1.172384  -0.42504  7.955557  -1.172384  -0.42504  7.955557  -7.851264  20.146354  4.994694  -178.845662  58.959904  -138.730572  -36.935306  -29.98116  107.099958  78.030484  -11.798087  -15.916816  6.756266  -1.775785  18.295563  103.251684  27.872284  34.88321  -49.874105  31.643185  -88.69791  84.557303  16.594173  -15.982984  8.014279  -1.193407  -2.869955  6.005046  -0.932907  -2.137171  
0.0  101.685394  0.0  -1.596868  -13.35326  -100.447833  18.187542  -21.483228  -27.059559  7.705068  7.346844  44.465366  -2.876535  -1.925946  1.894566  0.351606  8.083346  22.854767  -1.801411  -1.009984  7.800689  -5.417383  2.371804  -6.64861  -0.439164  -0.165372  2.902448  -1.218264  -0.398614  7.936344  -1.218264  -0.398614  7.936344  -7.640838  20.144206  5.129566  -178.235034  58.754184  -138.190986  -36.729337  -29.865218  106.791546  77.729555  -11.545365  -15.523667  6.99559  -1.780305  18.475034  103.107634  28.135896  34.888963  -50.27488  31.129142  -88.790504  84.264015  16.67718  -16.395287  8.109784  -1.230998  -2.77753  6.07666  -0.960332  -2.067161  
0.0  101.685394  0.0  -1.500869  -13.227083  -100.404102  17.678321  -21.45521  -26.920514  8.116257  7.238381  44.269832  -2.909403  -2.0266  1.886719  0.253767  8.190086  22.690142  -1.93635  -1.000404  7.920124  -5.318519  2.419998  -6.659207  -0.456937  -0.157637  2.886708  -1.265757  -0.375679  7.893263  -1.265758  -0.375679  7.893263  -7.591816  20.11479  5.191343  -177.72453  58.667134  -137.703484  -36.471096  -29.573275  106.854643  77.633486  -11.21489  -15.351194  7.056836  -1.841622  18.573763  103.132732  28.369317  34.958117  -50.079216  30.576734  -88.961585  84.137415  16.604378  -16.652541  8.156701  -1.250993  -2.72724  6.111845  -0.974874  -2.029078  
0.0  101.685394  0.0  -1.363642  -13.242068  -100.422121  17.268218  -21.459792  -26.784502  8.605209  7.111296  44.135588  -2.972291  -2.139369  1.887966  0.166588  8.365136  22.525494  -2.105046  -1.022409  8.043763  -5.048542  2.551519  -6.624445  -0.51103  -0.150905  2.862184  -1.412456  -0.351383  7.826348  -1.412456  -0.351383  7.826349  -7.419207  20.113568  5.255508  -177.190885  58.521761  -137.416553  -36.588877  -29.631871  106.733424  77.322573  -11.368971  -15.178318  7.32955  -1.884503  18.732995  102.252516  29.143214  34.665422  -49.735304  30.083885  -89.070938  83.743811  17.046575  -17.746133  8.293453  -1.247088  -2.69142  6.214496  -0.972075  -2.001995  
0.0  101.685394  0.0  -1.292015  -13.085952  -100.324944  16.847613  -21.430553  -26.790864  9.066255  6.863039  44.09383  -3.193483  -2.122356  1.880929  0.083209  8.482128  22.321528  -2.214745  -1.047309  8.207133  -4.991667  2.584934  -6.653241  -0.533384  -0.143437  2.848784  -1.472518  -0.328658  7.789655  -1.472518  -0.328658  7.789656  -7.417735  20.077551  5.23323  -177.085775  58.526968  -137.348634  -36.741077  -29.548578  107.112482  77.343419  -11.33973  -15.292704  7.355436  -1.965413  18.778581  102.369282  29.450773  34.791123  -49.561444  29.59984  -89.249739  83.619301  17.092084  -18.144647  8.36194  -1.235331  -2.725052  6.265853  -0.964022  -2.027254  
0.0  101.685394  0.0  -1.194748  -13.006318  -100.282558  16.501329  -21.362941  -26.851033  9.460694  6.564545  44.151144  -3.612772  -2.062422  1.779529  -0.117381  8.709952  22.065  -2.279163  -1.143728  8.413759  -4.838649  2.692417  -6.627315  -0.581076  -0.140567  2.830725  -1.60226  -0.315651  7.740423  -1.60226  -0.315651  7.740423  -7.248988  20.099363  5.265534  -177.128079  58.544576  -137.383248  -37.082319  -29.537082  107.628849  77.659657  -11.105987  -15.548337  7.368074  -2.038049  18.809996  101.634251  30.246005  34.550095  -48.552729  29.204907  -89.490745  83.465389  17.255494  -18.687798  8.361416  -1.225925  -2.842437  6.265283  -0.958572  -2.115441  
0.0  101.685394  0.0  -1.152498  -12.839989  -100.194708  16.280332  -21.229806  -26.983064  9.603925  6.352499  44.218296  -3.760604  -1.977891  1.760094  -0.257359  8.884683  21.85294  -2.173256  -1.229806  8.655589  -4.889614  2.744233  -6.643523  -0.6029  -0.137989  2.823507  -1.661493  -0.306247  7.720715  -1.661492  -0.306247  7.720715  -7.238981  20.096517  5.237499  -177.33071  58.648936  -137.538783  -37.469934  -29.583472  108.107115  77.74844  -11.39117  -15.888462  7.393814  -2.110887  18.85936  101.724818  30.658032  34.676572  -48.423069  28.882623  -89.672428  83.36984  17.439445  -19.274237  8.428819  -1.185392  -2.939228  6.315863  -0.929819  -2.188484  
0.0  101.685394  0.0  -1.08907  -12.803165  -100.184887  15.775724  -21.114042  -27.319128  9.476588  6.331263  44.289214  -3.37448  -1.676877  2.003291  -0.552368  9.068913  21.600764  -2.138128  -1.338014  8.916669  -4.608185  2.973919  -6.577787  -0.616698  -0.137835  2.825633  -1.699138  -0.304161  7.726573  -1.699138  -0.304161  7.726572  -7.128894  20.151347  5.230201  -177.736251  58.87039  -137.71794  -37.899632  -29.557758  108.647205  77.882289  -11.6938  -16.255531  7.304528  -2.179733  18.824985  100.795649  31.6094  34.336806  -47.375499  28.628764  -89.938518  83.277806  17.700872  -19.977336  8.435596  -1.148314  -3.093972  6.320866  -0.904176  -2.305069  
0.0  101.685394  0.0  -1.060687  -12.606944  -100.107891  15.711698  -20.914601  -27.545817  9.11489  6.500744  44.403394  -3.189905  -1.5516  1.963017  -0.82612  9.24962  21.373345  -1.876172  -1.397763  9.220106  -4.640103  3.056497  -6.585559  -0.628524  -0.136715  2.8228  -1.731272  -0.299797  7.718846  -1.731272  -0.299797  7.718846  -7.172156  20.168075  5.196154  -178.125482  59.089181  -137.995513  -38.349239  -29.569638  109.068635  77.966479  -12.071131  -16.621949  7.34587  -2.252233  18.897889  100.747295  32.134948  34.431552  -47.299493  28.41674  -90.150822  83.282653  17.964962  -20.715633  8.458429  -1.110449  -3.220716  6.337981  -0.877643  -2.400636  
0.0  101.685394  0.0  -0.990007  -12.613375  -100.128081  15.778814  -20.735019  -27.736356  8.615794  6.837822  44.51171  -2.762335  -1.356885  1.98327  -1.12514  9.448045  21.173686  -1.35192  -1.37745  9.587981  -4.869969  3.067071  -6.645293  -0.637714  -0.139589  2.808406  -1.756633  -0.306954  7.679617  -1.756633  -0.306954  7.679618  -6.949952  20.302319  5.325828  -178.742982  59.412131  -138.273592  -38.780663  -29.567518  109.379598  77.032538  -13.798301  -16.531955  7.414572  -2.296902  19.064015  99.618958  33.215629  34.033625  -46.392643  28.245969  -90.42858  83.289362  18.329904  -21.569087  8.507811  -1.065007  -3.278671  6.375181  -0.844624  -2.444667  
